<?xml version="1.0" encoding="UTF-8" standalone="no"?><!DOCTYPE svg PUBLIC "-//W3C//DTD SVG 1.1//EN" "http://www.w3.org/Graphics/SVG/1.1/DTD/svg11.dtd"><svg width="100%" height="100%" viewBox="0 0 166 72" version="1.1" xmlns="http://www.w3.org/2000/svg" xmlns:xlink="http://www.w3.org/1999/xlink" xml:space="preserve" xmlns:serif="http://www.serif.com/" style="fill-rule:evenodd;clip-rule:evenodd;stroke-linejoin:round;stroke-miterlimit:2;"><path d="M140.818,37.712l5.646,-3.803l1.191,1.153c-0.5,0.537 -0.883,1.229 -0.883,1.997c0,2.996 3.84,4.187 6.222,4.187c2.727,0 6.529,-1.345 6.529,-4.609c0,-7.26 -17.284,-2.151 -17.284,-12.522c0,-5.876 5.838,-7.912 10.793,-7.912c4.455,0 8.566,1.575 11.331,5.185l-4.379,3.841l-1.306,-0.884c0.231,-0.383 0.346,-0.691 0.346,-1.152c0,-2.726 -3.88,-3.457 -5.992,-3.457c-2.189,0 -5.569,0.461 -5.569,3.265c0,5.838 17.591,1.69 17.591,12.79c0,6.376 -6.337,8.988 -11.868,8.988c-6.107,0 -9.218,-2.189 -12.368,-7.067m-8.008,2.958l0,-19.359c0,-1.651 0,-2.804 -1.69,-3.111l0,-1.421l8.604,0l0,1.421c-1.69,0.307 -1.69,1.46 -1.69,3.111l0,18.36c0,1.651 0,2.804 1.69,3.111l0,1.421l-12.06,0c-9.065,0 -11.792,-7.067 -11.792,-11.753c0,-6.261 4.839,-12.214 4.839,-13.328c0,-0.691 -0.883,-0.96 -1.421,-0.922l0,-1.421l8.335,0l0,1.421c-3.879,1.652 -6.53,9.257 -6.53,13.443c0,5.608 3.265,9.027 8.834,9.027l2.881,0Zm-40.502,-23.891l23.045,0l0,5.685l-1.92,0c-0.269,-2.151 -1.152,-2.382 -2.881,-2.382l-4.11,0l0,19.589c0,1.651 0,2.804 1.69,3.111l0,1.421l-8.603,0l0,-1.421c1.69,-0.307 1.69,-1.46 1.69,-3.111l0,-19.589l-4.11,0c-1.729,0 -2.612,0.231 -2.881,2.382l-0.474,0l-4.467,4.109l-1.498,-1.19c0.307,-0.423 0.576,-0.845 0.576,-1.498c0,-2.727 -2.804,-4.149 -5.377,-4.149c-5.147,0 -7.836,4.955 -7.836,9.603c0,6.414 4.725,11.907 11.293,11.907c2.112,0 3.956,-0.461 4.609,-2.612l1.92,0l0,5.531c-1.92,0.461 -3.917,0.614 -5.877,0.614c-14.403,0 -17.475,-9.948 -17.475,-14.864c0,-7.912 5.607,-13.712 13.558,-13.712c3.374,0 6.7,1.465 9.127,3.821l0.001,-3.245Zm-30.662,23.891l0,-19.359c0,-1.651 0,-2.804 -1.69,-3.111l0,-1.421l8.604,0l0,1.421c-1.69,0.307 -1.69,1.46 -1.69,3.111l0,18.36c0,1.651 0,2.804 1.69,3.111l0,1.421l-12.061,0c-9.064,0 -11.791,-7.067 -11.791,-11.753c0,-6.261 4.839,-12.214 4.839,-13.328c0,-0.691 -0.883,-0.96 -1.421,-0.922l0,-1.421l8.335,0l0,1.421c-3.88,1.652 -6.53,9.257 -6.53,13.443c0,5.608 3.265,9.027 8.834,9.027l2.881,0Zm-24.472,-9.065l5.877,9.372c0.653,0.998 1.152,1.613 2.381,1.805l0,1.421l-6.76,0l-7.029,-11.83l-4.109,0l0,7.298c0,1.651 0,2.804 1.69,3.111l0,1.421l-8.604,0l0,-1.421c1.69,-0.307 1.69,-1.46 1.69,-3.111l-0.013,-10.416c-0.252,-2.265 -1.913,-2.517 -3.825,-2.517l-9.412,0l0,11.526c0,2.164 0,3.674 2.214,4.077l0,1.862l-11.274,0l0,-1.862c2.215,-0.403 2.215,-1.913 2.215,-4.077l0,-24.058c0,-2.164 0,-3.674 -2.215,-4.077l0,-1.863l29.142,0l0,7.601l-2.517,0c-0.402,-3.221 -2.315,-3.272 -4.982,-3.272l-12.583,0l0,9.815l9.412,0c1.863,0 3.487,-0.239 3.802,-2.345c-0.093,-0.977 -0.431,-1.642 -1.654,-1.865l0,-1.421l13.789,0c4.609,0 8.949,2.381 8.949,7.413c0,3.764 -2.535,6.683 -6.184,7.413m-9.64,-2.535l4.801,0c2.919,0 5.799,-1.037 5.799,-4.379c0,-3.533 -3.072,-4.532 -6.03,-4.609l-4.57,0l0,8.988Z" style="fill:#1d1d1b;fill-rule:nonzero;"/><path d="M59.451,48.531l13.757,3.231l91.845,0l0,-3.231l-105.602,0Z" style="fill:#1d1d1b;fill-rule:nonzero;"/><path d="M72.627,0c0,0 4.308,4.27 9.407,4.326c7.382,0.081 9.142,13.491 9.142,13.491c-3.382,-5.413 -15.581,-0.162 -18.549,-8.345c-1.629,-4.492 0,-9.472 0,-9.472" style="fill:#457a37;fill-rule:nonzero;"/><path d="M93.923,62.929l-2.324,-7.428l-4.778,-0.001l0,0.804c0.803,0.086 0.869,0.564 0.76,1.303l-1.542,11.25c-0.109,0.826 -0.13,1.13 -1.064,1.347l0,0.804l4.039,0l0,-0.803c-0.63,-0.109 -0.847,-0.478 -0.76,-1.153l1.369,-11.032l0.043,0l2.975,9.492l1.934,-0.001l2.997,-9.491l0.043,0l1.347,10.838c0.087,0.629 0.021,1.15 -0.782,1.346l0,0.803l4.626,0.001l0,-0.804c-0.717,-0.196 -0.825,-0.696 -0.912,-1.347l-1.499,-11.25c-0.108,-0.804 0.065,-1.195 0.847,-1.303l0,-0.804l-4.973,0l-2.346,7.428Z" style="fill:#457a37;fill-rule:nonzero;"/><path d="M103.911,71.008l12.575,0l0,-3.28l-1.086,0c-0.195,1.13 -0.782,1.412 -1.846,1.412l-5.734,0l0,-5.907l3.801,0c0.826,0 1.542,0.108 1.651,1.085l1.086,0l0,-4.039l-1.086,0c-0.109,0.977 -0.825,1.086 -1.651,1.086l-3.801,0l0,-3.996l5.213,0c1.151,-0.022 1.499,0.021 1.781,1.259l1.086,0l0,-3.127l-11.989,0l0,0.803c0.956,0.174 0.956,0.825 0.956,1.76l0,10.381c0,0.934 0,1.586 -0.956,1.759l0,0.804Z" style="fill:#457a37;fill-rule:nonzero;"/><path d="M127.169,63.884c2.063,-0.413 3.497,-2.063 3.497,-4.192c0,-2.845 -2.454,-4.192 -5.061,-4.192l-7.797,0l0,0.804c0.956,0.174 0.956,0.825 0.956,1.76l0,10.381c0,0.934 0,1.585 -0.956,1.759l0,0.804l4.865,0l0,-0.804c-0.956,-0.174 -0.956,-0.825 -0.956,-1.759l0,-4.127l2.324,0l3.975,6.69l3.823,0l0,-0.804c-0.695,-0.108 -0.978,-0.456 -1.347,-1.021l-3.323,-5.299Zm-5.452,-1.433l0,-5.083l2.585,0c1.673,0.043 3.41,0.608 3.41,2.607c0,1.889 -1.629,2.476 -3.279,2.476l-2.716,0Z" style="fill:#457a37;fill-rule:nonzero;"/><path d="M138.18,63.493l1.955,-5.147l2.041,5.147l-3.996,0Zm4.062,-7.993l-3.15,0l-5.017,13.119c-0.238,0.608 -0.521,1.542 -1.325,1.585l0,0.804l4.257,0l0,-0.804c-0.999,-0.26 -1.02,-0.717 -0.673,-1.607l1.216,-3.236l5.321,0l1.325,3.236c0.37,0.89 0.478,1.433 -0.629,1.607l0,0.804l5.081,0l0,-0.804c-0.673,-0.087 -0.847,-0.565 -1.064,-1.129l-5.342,-13.575Z" style="fill:#457a37;fill-rule:nonzero;"/><path d="M161.35,66.403l0,2.042c0,0.934 0,1.585 -0.955,1.759l0,0.803l4.083,0l0,-0.803c-0.956,-0.174 -0.956,-0.825 -0.956,-1.759l0,-10.382c0,-0.934 0,-1.585 0.956,-1.759l0,-0.804l-4.083,0l0,0.804c0.955,0.174 0.955,0.825 0.955,1.759l0,4.344l-6.798,-6.907l-4.431,0l0,0.804c0.956,0.174 0.956,0.825 0.956,1.759l0,10.382c0,0.934 0,1.585 -0.956,1.759l0,0.803l4.083,0l0,-0.803c-0.955,-0.174 -0.955,-0.825 -0.955,-1.759l0,-9.926l8.101,7.884Z" style="fill:#457a37;fill-rule:nonzero;"/></svg>