<?xml version="1.0" standalone="no"?><!DOCTYPE svg PUBLIC "-//W3C//DTD SVG 1.1//EN" "http://www.w3.org/Graphics/SVG/1.1/DTD/svg11.dtd"><svg class="icon" width="200px" height="200.00px" viewBox="0 0 1024 1024" version="1.1" xmlns="http://www.w3.org/2000/svg"><path d="M206.336 751.104l19.968 8.192-3.584 8.192s-10.24 3.072-17.92-4.608 1.536-11.776 1.536-11.776z" fill="#3A3937" /><path d="M181.76 729.6s22.528 39.936 72.704 38.912l-72.704-38.912z" fill="#2B1600" /><path d="M483.328 181.248l18.944 10.752 4.096-7.68s-3.584-10.24-14.336-11.776c-11.264-1.536-8.704 8.704-8.704 8.704z" fill="#3A3937" /><path d="M451.584 174.592s45.568-6.656 74.752 34.304l-74.752-34.304z" fill="#2B1600" /><path d="M76.288 609.792c16.896 44.544 50.176 82.944 89.088 111.104 80.896 58.368 193.024 101.888 285.184 46.08 39.424-23.552 70.144-59.392 96.768-96.768 43.008-61.952 74.24-131.584 92.16-204.288 9.728-40.448 15.872-82.944 4.096-122.88-13.312-45.056-46.592-80.896-83.456-110.08-69.12-55.296-160.256-94.208-244.736-70.144-49.664 14.336-91.648 48.128-125.952 87.04-50.176 56.32-87.552 123.392-109.568 195.584-13.824 45.568-21.504 94.72-10.752 141.312 1.536 7.68 4.096 15.872 7.168 23.04z" fill="#8E5D28" /><path d="M189.44 249.856c-50.176 56.32-87.552 123.392-109.568 195.584-13.824 45.568-21.504 94.72-10.752 141.312 2.048 8.192 4.096 15.872 7.168 23.552 16.896 44.544 50.176 82.944 89.088 111.104 16.384 11.776 33.792 23.04 52.224 32.768 67.584 30.72 143.36 41.984 209.92 1.536 39.424-23.552 70.144-59.392 96.768-96.768 43.008-61.952 74.24-131.584 92.16-204.288 9.728-40.448 15.872-82.944 4.096-122.88-13.312-45.056-46.592-80.896-83.456-110.08-18.944-15.36-39.936-29.696-62.464-41.472-50.688-22.528-105.984-32.256-159.232-16.896-49.664 13.824-91.648 48.128-125.952 86.528z" fill="#96622F" /><path d="M290.304 697.344c-2.048 5.632 3.584 10.24 12.8 18.944 50.176 49.664 108.544 92.16 174.08 119.296 72.704 30.208 155.136 41.472 231.936 24.064 67.584-15.36 130.048-51.712 178.688-101.376 30.208-30.72 55.296-67.072 65.536-108.544 7.168-28.672 6.656-58.368 5.12-88.064-3.072-53.76-10.24-107.008-22.016-159.232-9.728-43.008-22.016-86.016-46.592-122.368 3.584 5.12-283.136 204.288-309.76 222.72-52.736 36.352-106.496 71.68-160.256 107.008-27.136 17.408-53.76 34.816-80.896 52.224-12.8 8.192-26.624 15.872-38.912 24.576-5.12 4.608-8.704 7.68-9.728 10.752z" fill="#8E5D28" /><path d="M420.864 609.792c-27.136 17.408-53.76 34.816-80.896 52.224-12.288 7.68-25.6 15.36-37.376 23.552l5.632 5.632c50.176 49.664 108.544 92.16 174.08 119.296 72.704 30.208 155.136 41.472 231.936 24.064 67.584-15.36 130.048-51.712 178.688-101.376 29.184-29.696 53.76-64.512 64.512-104.448 3.072-22.016 2.56-44.544 1.024-67.072-3.072-53.76-10.24-107.008-22.016-159.232-9.728-43.008-22.016-86.016-46.592-122.368 3.584 5.12-283.136 204.288-309.76 222.72-52.224 36.352-105.472 72.192-159.232 107.008z" fill="#B77F25" /><path d="M300.544 420.352c-39.424 59.904-66.56 138.24-50.688 207.872C266.24 700.928 332.8 753.152 404.48 765.44c65.024 11.264 132.096-4.096 194.048-26.624 67.072-24.576 131.584-57.856 185.856-103.936 54.272-46.592 97.792-106.496 118.272-174.592 13.824-46.592 16.896-97.28 3.584-144.384s-43.52-89.6-86.016-114.176c-43.52-25.088-96.768-29.696-146.432-20.992s-95.744 29.696-140.8 52.224c-80.384 41.472-158.72 91.136-214.528 162.304-5.632 7.68-11.776 16.384-17.92 25.088z" fill="#95AD00" /><path d="M502.784 543.232s0 0.512 0 0c13.312-6.144 27.648-12.8 41.984-10.752 6.144 1.024 12.288 3.584 18.432 5.632 30.72 9.728 67.584 3.072 89.6-20.48 22.016-23.552 25.088-64 3.584-88.064-14.848-16.896-38.4-23.552-60.928-24.064-20.48-0.512-40.96 3.584-58.88 13.312s-32.256 26.112-38.912 45.568c-4.096 12.8-4.096 27.648 3.072 38.912 0-0.512-10.752 9.728-11.776 10.752 4.096 1.536 8.192 2.048 12.8 2.56 1.024 9.216 1.024 17.92 1.024 26.624z" fill="#FFFE7F" /><path d="M493.568 306.688c2.048 1.536 4.096 3.584 5.632 6.144 3.072 5.632 50.176 98.816 43.52 102.4-0.512 0-1.024 0-2.048-0.512-11.776-7.68-57.344-86.528-60.416-91.648-3.072-5.632-3.584-12.8 3.072-16.896 3.584-2.048 7.168-1.024 10.24 0.512zM420.864 368.128c5.632 3.584 95.232 66.048 90.112 71.168-5.12 5.632-98.304-52.736-103.936-56.32-5.632-3.584-9.728-9.728-4.608-14.848 5.12-5.632 12.8-3.584 18.432 0zM584.704 272.896c3.072 2.048 4.096 6.656 4.608 11.264 0 6.656-2.048 116.736-9.216 118.272h-0.512c-7.168-4.608-10.24-107.52-10.24-114.176 0-6.656 2.56-14.336 10.24-15.872 1.536-1.024 3.584-0.512 5.12 0.512zM488.96 468.992c1.024 0.512 1.024 1.024 1.024 1.536-2.56 6.144-122.88-10.752-130.048-11.776-3.072-0.512-6.144-1.536-8.704-3.072-3.072-2.048-4.096-4.608-2.56-8.192 2.56-6.144 11.776-7.68 18.944-6.144 6.656 1.024 109.568 19.968 121.344 27.648zM677.376 270.848c3.584 2.56 3.072 8.704 0.512 14.336-3.072 6.656-54.272 116.736-60.928 115.712-5.632-3.584 39.424-112.128 42.496-118.784 3.072-6.656 8.704-13.824 15.36-12.288 1.024 0.512 1.536 0.512 2.56 1.024zM482.304 503.296c0.512 0 0.512 0 0 0 0.512 6.656-128 33.792-136.192 35.328-5.12 1.024-10.752 1.024-13.824-1.024-1.536-1.024-2.56-2.56-2.56-4.608 0-6.144 8.192-10.24 16.384-11.776 7.68-1.536 129.536-22.528 136.192-17.92zM489.984 533.504c3.072 5.632-114.688 72.192-121.856 75.776-6.144 3.584-13.312 5.632-17.408 3.072-0.512-0.512-1.536-1.024-1.536-2.048-3.072-5.12 3.584-11.264 11.264-15.36 7.168-3.584 124.416-65.024 129.536-61.44z" fill="#BED60F" /><path d="M511.488 556.544c5.12 3.584-83.456 99.328-88.576 105.472-5.632 5.632-13.312 10.752-18.432 7.168-5.12-3.584-1.536-10.752 4.096-16.896 5.632-5.632 97.792-98.816 102.912-95.744z" fill="#BED60F" /><path d="M543.232 568.832c5.632 3.584-39.424 112.128-42.496 118.784-3.072 6.656-8.704 13.824-15.36 12.288-1.024 0-2.048-0.512-2.56-1.024-4.096-2.56-3.072-8.704-0.512-14.336 3.072-6.656 54.272-117.248 60.928-115.712z" fill="#BED60F" /><path d="M581.12 567.808c7.168 4.608 10.24 107.52 10.24 114.176 0 6.656-2.56 14.336-10.24 15.872-2.56 0.512-4.096 0-5.632-1.024-3.072-2.048-4.096-6.656-4.608-11.264 0-6.656 2.048-116.736 9.216-118.272 0.512 0.512 1.024 0.512 1.024 0.512z" fill="#BED60F" /><path d="M619.52 555.008c11.776 7.68 57.344 86.528 60.416 91.648 3.072 5.632 3.584 12.8-3.072 16.896-3.584 2.048-7.168 1.536-10.24-0.512-2.048-1.536-4.096-3.584-5.632-6.144-3.072-5.632-50.176-98.816-43.52-102.4 0.512-0.512 1.536 0 2.048 0.512z" fill="#BED60F" /><path d="M753.152 586.752c5.632 3.584 9.728 9.728 4.608 14.848-5.12 5.632-13.312 3.584-18.944 0s-95.232-65.536-90.112-71.168c5.632-5.632 98.816 52.736 104.448 56.32z" fill="#BED60F" /><path d="M755.712 300.544c5.12 3.584 1.536 10.752-4.096 16.896-5.632 5.632-97.792 99.328-103.424 95.744-5.12-3.584 83.456-99.328 89.088-105.472 5.632-5.632 13.312-10.752 18.432-7.168zM808.96 357.376c0.512 0.512 1.536 1.024 2.048 2.048 3.072 5.12-3.584 11.264-11.264 15.36-7.168 4.096-123.904 65.024-129.536 61.44-3.072-5.632 114.688-72.192 121.856-75.776 5.632-3.584 12.8-5.632 16.896-3.072zM827.904 432.64c1.536 1.024 2.56 2.56 2.56 4.608 0 6.144-8.192 10.24-16.384 11.776-7.68 1.536-129.024 22.528-136.192 17.92l-0.512-0.512c0-6.144 128.512-33.28 136.192-34.816 5.632-1.024 11.264-1.024 14.336 1.024zM808.96 514.048c3.072 2.048 4.096 4.608 2.56 8.192-2.56 6.144-11.776 7.68-18.944 6.144-6.656-1.024-110.08-19.968-121.344-27.648-1.024-0.512-1.024-1.024-1.024-1.536 2.56-6.144 122.88 10.752 130.048 11.776 3.072 0.512 6.144 1.536 8.704 3.072z" fill="#BED60F" /><path d="M664.576 336.896c4.608 3.584 2.56 12.8-1.024 18.944-4.096 7.168-12.288 12.8-20.992 14.336-4.608-5.12-5.632-12.8-1.536-20.48s13.312-16.384 20.992-14.336c1.024 0.512 2.048 1.024 2.56 1.536zM713.728 361.472c5.632 4.608-1.536 14.336-8.192 20.48-7.168 6.144-16.384 8.704-24.576 7.68-1.536-6.656 1.536-14.848 8.192-20.48 7.168-6.144 18.944-12.288 24.576-7.68zM465.408 522.24c-2.048 7.168-7.68 14.336-16.384 17.92-7.68 3.072-18.432 5.12-22.528 1.536-0.512-0.512-1.024-1.024-1.536-2.048-2.56-6.144 7.68-14.336 16.384-17.92 8.192-3.584 17.408-3.072 24.064 0.512zM489.472 553.984c1.536 6.656-1.536 14.848-8.192 20.48-7.168 6.144-18.944 11.776-24.576 7.68-5.632-4.608 1.536-14.848 8.192-20.48s16.384-8.704 24.576-7.68zM690.688 541.184c6.144 4.608 11.264 13.824 4.608 19.456-6.656 5.632-17.408 1.536-23.552-3.072-6.144-4.608-7.168-12.288-4.608-19.456 8.192-2.56 17.408-1.536 23.552 3.072zM498.688 386.048c6.144 4.608 7.168 12.288 4.608 19.456-8.192 2.56-17.408 1.536-23.552-3.072-6.144-4.608-11.264-13.824-4.608-19.456 6.656-6.144 17.408-2.048 23.552 3.072zM751.616 451.584c1.536 1.024 2.56 3.072 2.048 5.12-0.512 7.168-13.312 11.264-22.528 12.288-6.656 0.512-12.8-1.024-16.896-4.608-1.536-1.024-2.56-2.56-3.584-4.096 5.12-6.656 13.312-11.264 22.528-12.288 6.656-0.512 14.336 0.512 18.432 3.584zM455.68 478.72c1.536 1.024 2.56 2.56 3.584 4.096-5.12 6.656-13.312 11.264-22.528 12.288-6.656 0.512-14.336-0.512-18.432-3.584-1.536-1.536-2.56-3.072-2.048-5.12 0.512-7.168 13.312-11.264 22.528-12.288 7.168 0 12.8 1.536 16.896 4.608zM580.096 579.584c4.096 3.584 6.656 8.192 5.632 13.824-0.512 7.68-5.632 18.432-13.824 18.944-2.56 0-4.608-0.512-6.144-1.536-3.584-3.072-5.12-9.728-4.608-14.848 0.512-7.68 6.144-14.848 13.824-18.944 2.048 0.512 3.584 1.536 5.12 2.56zM604.672 332.288c3.584 3.072 5.12 9.728 4.608 14.848-0.512 7.68-6.144 14.848-14.336 18.944-1.536-0.512-3.584-1.536-4.608-3.072-4.096-3.584-6.656-8.192-6.144-13.824 0.512-7.68 5.632-18.432 14.336-18.944 2.56 0 4.608 1.024 6.144 2.048zM527.872 572.928c4.608 5.12 5.632 12.8 1.024 20.48-4.096 7.168-13.312 16.384-20.992 14.336-1.024-0.512-2.048-0.512-2.56-1.024-4.608-3.584-2.56-12.8 1.536-18.944 4.096-7.68 12.288-12.8 20.992-14.848zM732.672 501.76c3.584 2.56 5.12 6.144 3.072 10.24-4.096 6.656-16.384 7.168-24.576 5.12-3.072-1.024-5.632-2.048-7.68-3.584-3.584-3.072-5.632-6.656-6.144-11.264 7.168-5.12 16.384-7.168 24.576-5.12 4.096 0.512 8.192 2.56 10.752 4.608zM466.944 430.592c3.584 3.072 5.632 6.656 6.144 11.264-7.168 5.12-16.384 7.168-25.088 5.12-3.584-1.024-7.68-2.56-10.24-5.12-3.584-2.56-5.12-6.144-3.072-10.24 4.096-6.656 16.384-7.168 24.576-5.12 3.072 1.024 5.632 2.56 7.68 4.096zM744.448 401.92c0.512 0.512 1.024 1.024 1.536 2.048 2.56 6.144-7.68 14.336-16.384 17.92-8.704 3.584-17.92 3.072-24.064-0.512 1.536-7.168 7.68-14.336 16.384-17.92 7.168-3.072 17.92-5.12 22.528-1.536zM637.952 569.344c2.048 1.536 3.584 3.584 4.608 6.144 3.072 6.656 3.072 17.408-5.12 20.992-4.608 2.048-8.704 0.512-12.288-2.048-2.56-2.048-5.12-5.632-6.144-8.704-3.072-6.656-0.512-14.848 5.12-20.992 5.12 0 10.24 1.536 13.824 4.608zM544.768 349.696c2.56 2.048 5.12 5.632 6.144 8.704 3.072 6.656 0.512 14.848-5.12 20.992-5.12 0-10.24-1.536-13.824-4.608-2.048-1.536-3.584-3.584-4.608-6.144-3.072-6.656-3.072-17.408 5.12-20.992 5.12-2.56 9.216-1.024 12.288 2.048z" fill="#2B1600" /></svg>